<?xml version="1.0" encoding="UTF-8"?>
<svg id="Layer_1" xmlns="http://www.w3.org/2000/svg" version="1.1" viewBox="0 0 362.67 112.6">
  <!-- Generator: Adobe Illustrator 29.8.1, SVG Export Plug-In . SVG Version: 2.1.1 Build 2)  -->
  <defs>
    <style>
      .st0 {
        fill: #fff;
      }
    </style>
  </defs>
  <path class="st0" d="M266.59,15.1c18.4.9,49.3,2.5,87.1,7.3,2.4.3,4.9.6,7.3.9,1.8.2,2.4-2.4.6-2.9C328.79,10.7,283.89,3.7,234.59.8h-1.3c-5.8-.3-11.7-.6-17.8-.8-1.4-.1-2.1,1.8-1,2.7,4.5,3.6,8.5,8,11.6,12.8.1.1.2.3.3.4l.3.4c5.4,8.6,8.2,18.5,8.2,28.7,0,15-6.3,29.5-17.4,39.8-11.2,10.4-25.8,15.5-41,14.4-26.9-2-48.4-23.8-50.1-50.8-.7-11.4,2.1-22.5,8.1-32.1l.1-.1c.1-.1.1-.2.2-.3.1-.2.2-.4.4-.5,3.1-4.8,7-9.1,11.5-12.7,1.1-.9.5-2.7-1-2.7-6,.2-12,.5-17.9.8h-1.1C78.09,3.6,33.79,10.5,1.09,20c-1.8.5-1.2,3.2.6,2.9l3.3-.4c35-4.5,64-6,87.3-7.2,7.2-.4,14.4-.7,21.6-1l4.6-.2c.7,0,1.2.7,1,1.4l-1.7,4.3c-1.2,3-2.2,6.1-2.9,9.2,0,.1-1.9,8-1.9,15.9,0,31.3,22.1,59,52.6,66l1,.2c4.6,1,9.5,1.5,14,1.5,3.1,0,8.1-.3,14-1.5,0,0,.6-.1,1.1-.2,30.4-7,52.5-34.7,52.5-66,0-8-1.9-15.9-1.9-15.9-.8-3.1-1.8-6.2-3-9.2l-1.7-4.3c-.3-.7.2-1.4,1-1.4l4.6.2c6.4.2,12.9.5,19.4.8Z"/>
  <g>
    <path class="st0" d="M282.19,48.1l-19.1-18.8h8.6c2.7,0,5.4,1,7.4,2.9l10,9.2,10.3-9.3c2-1.8,4.6-2.8,7.3-2.8h8.2c-6.4,6.3-12.7,12.6-19.1,18.9l19.1,18.7h-8.7c-2.8,0-5.4-1-7.4-2.9-3.2-3-6.5-6-9.7-9-3.2,3-6.4,6-9.6,9-2,1.9-4.7,2.9-7.4,2.9h-9.3l19.4-18.8Z"/>
    <path class="st0" d="M46.79,29.2h34.2c2,0,3.8.1,5.3.3,1.5.2,2.9.6,4,1s2.1.9,2.9,1.5,1.4,1.2,1.9,1.9c.5.7.8,1.5,1,2.3s.3,1.7.3,2.6v.1c0,.8-.1,1.6-.3,2.4-.2.8-.5,1.5-.8,2.1-.4.7-.8,1.3-1.3,1.8s-1.1,1-1.8,1.4v.1c1,.3,1.9.7,2.7,1.3.8.6,1.4,1.2,2,2,.5.8.9,1.6,1.2,2.5.3.9.4,1.8.4,2.8v.1c0,2-.4,3.8-1.1,5.2-.7,1.5-1.8,2.7-3.2,3.6-1.4.9-3.1,1.7-5.2,2.1-2.1.5-4.4.7-7.1.7h-35.3V29.2h.2ZM79.69,43.9c.9,0,1.6-.1,2.2-.2s1.2-.3,1.6-.6c.4-.3.8-.6,1-1.1s.3-1,.3-1.7v-.1c0-.7-.1-1.2-.3-1.6-.2-.4-.5-.8-1-1-.4-.3-1-.4-1.6-.5s-1.4-.2-2.2-.2h-22.4v6.9h22.4v.1ZM81.09,59.1c1,0,1.8-.1,2.6-.2.7-.2,1.3-.4,1.8-.7.5-.3.8-.7,1-1.2s.3-1,.3-1.7v-.1c0-.6-.1-1.2-.3-1.7-.2-.5-.5-.9-1-1.2-.5-.3-1-.5-1.8-.7-.7-.2-1.6-.2-2.6-.2h-23.8v7.6h23.8v.1Z"/>
  </g>
  <g>
    <path class="st0" d="M179.59,51.1c-.2-.6-.5-1.2-.9-1.8-.4-.5-.8-1-1.4-1.4s-1.2-.7-1.9-.9h0c.5-.3.9-.6,1.3-1s.7-.8.9-1.3c.3-.5.4-1,.6-1.5.1-.5.2-1.1.2-1.7h0c0-.6-.1-1.3-.2-1.8-.2-.6-.4-1.1-.7-1.6-.3-.5-.8-1-1.3-1.4-.6-.4-1.2-.8-2-1.1-.8-.3-1.7-.5-2.8-.7-1.1-.2-2.4-.2-3.8-.2h-18.7c-3,0-5.5,2.5-5.5,5.5h23.3c.6,0,1.1,0,1.6.1s.8.2,1.1.4c.3.2.5.4.7.7.2.3.2.7.2,1.2h0c0,.5-.1.9-.2,1.2-.2.3-.4.6-.7.8-.3.2-.7.3-1.1.4-.5.1-1,.1-1.6.1h-16.8v5.4h17.8c.7,0,1.3.1,1.8.2s.9.3,1.2.5c.3.2.6.5.7.8.2.3.2.7.2,1.2h0c0,.4-.1.8-.2,1.2-.2.3-.4.6-.7.8-.3.2-.7.4-1.2.5s-1.1.2-1.8.2h-24.3c0,3.1,2.5,5.5,5.5,5.5h19.4c1.9,0,3.5-.2,5-.5s2.7-.8,3.6-1.5c1-.7,1.7-1.5,2.2-2.6.5-1,.8-2.3.8-3.7h0c0-.7-.1-1.4-.3-2Z"/>
    <path class="st0" d="M190.79,34.7c-.6,0-2.9.1-4.8,1.9-2,1.9-2.1,4.3-2.2,5.2,0,.6-.2,4.3,2.7,6.8,2,1.7,4.5,1.9,4.8,1.9h13.7c.4,0,1.3,0,3.1-.1.9,0,1.5-.2,2-.4.3-.1.5-.3.6-.3.6-.4,1-1,1.2-1.3v4.9c0,1.4-1.2,2.6-2.6,2.6h-25.2c0,.5.1,2.3,1.5,3.8,1.8,1.9,4.3,1.8,4.7,1.7h21.5c4.2,0,7.7-3.4,7.7-7.7v-11.3c0-4.2-3.4-7.7-7.7-7.7h-21ZM211.19,42.9c0,1.2-1,2.2-2.2,2.2h-14.8c-1.2,0-2.2-1-2.2-2.2v-.4c0-1.2,1-2.2,2.2-2.2h14.8c1.2,0,2.2,1,2.2,2.2v.4Z"/>
  </g>
</svg>